<svg width="16" height="16" viewBox="0 0 16 16" fill="none" xmlns="http://www.w3.org/2000/svg">
<path fill-rule="evenodd" clip-rule="evenodd" d="M6.80941 0.43513C7.49712 -0.145043 8.50289 -0.145044 9.19059 0.435131L14.7298 5.10817C15.1456 5.459 15.3856 5.97537 15.3856 6.51943V14.5639C15.3856 15.357 14.7426 16 13.9495 16H11.4876C10.6945 16 10.0515 15.357 10.0515 14.5639V10.4608C10.0515 10.1209 9.776 9.84537 9.43608 9.84537H6.56392C6.22401 9.84537 5.94846 10.1209 5.94846 10.4608V14.5639C5.94846 15.357 5.3055 16 4.51238 16H2.05052C1.2574 16 0.614441 15.357 0.614441 14.5639V6.51943C0.614441 5.97537 0.854394 5.459 1.27024 5.10817L6.80941 0.43513Z" fill="url(#paint0_linear_1_14)"/>
<defs>
<linearGradient id="paint0_linear_1_14" x1="0.246392" y1="-0.399108" x2="16.9903" y2="15.0588" gradientUnits="userSpaceOnUse">
<stop stop-color="#31AEFA"/>
<stop offset="1" stop-color="#036FC4"/>
</linearGradient>
</defs>
</svg>
